<svg width="120" height="30" viewBox="0 0 120 30" fill="none" xmlns="http://www.w3.org/2000/svg">
<g clip-path="url(#clip0_3517_44217)">
<path d="M55.8745 18.9167L59.1588 8.30566H63.4667L58.2889 23.4279H53.5852L50.1993 13.2056L46.8291 23.4279H42.1566L36.984 8.30566H41.37L44.6387 18.8626L48.0636 8.30566H52.4027L55.8745 18.9167Z" fill="#0E2A47"/>
<path d="M78.4452 15.8351C78.4489 16.2919 78.4245 16.7485 78.3722 17.2023H67.5219C67.9594 19.3884 69.5143 20.3463 71.4547 20.3463C72.8705 20.3198 74.2337 19.8114 75.3145 18.9069L77.7159 21.523C75.9683 23.1065 73.7597 23.8404 71.2046 23.8404C66.5165 23.8404 63.2661 20.6964 63.2661 15.92C63.2661 11.1437 66.4228 7.93794 71.0093 7.93794C75.4109 7.89417 78.4217 11.1076 78.4452 15.8351ZM67.5479 14.4189H74.3196C73.9315 12.4774 72.7569 11.396 70.9937 11.396C69.0507 11.396 67.9099 12.5624 67.5479 14.4189Z" fill="#0E2A47"/>
<path d="M96.2365 15.8344C96.2365 20.3714 93.0564 23.8011 88.8345 23.8011C86.7717 23.8011 85.3392 23.0106 84.3443 21.8339V29.6564H80.2422V8.30036H84.2714V9.9869C85.2663 8.76384 86.7222 7.927 88.8345 7.927C93.0564 7.89353 96.2365 11.3001 96.2365 15.8344ZM84.1255 15.8344C84.1255 18.211 85.7273 20.0109 88.0583 20.0109C90.4831 20.0109 92.0146 18.1621 92.0146 15.8344C92.0146 13.5068 90.5092 11.6606 88.0583 11.6606C85.7273 11.6837 84.1255 13.4604 84.1255 15.8344Z" fill="#0E2A47"/>
<path d="M102.862 3.33367C102.862 4.02408 102.585 4.68621 102.091 5.1744C101.597 5.6626 100.928 5.93686 100.229 5.93686C99.5309 5.93686 98.8611 5.6626 98.3673 5.1744C97.8735 4.68621 97.5961 4.02408 97.5961 3.33367C97.5961 2.64325 97.8735 1.98112 98.3673 1.49293C98.8611 1.00473 99.5309 0.730469 100.229 0.730469C100.928 0.730469 101.597 1.00473 102.091 1.49293C102.585 1.98112 102.862 2.64325 102.862 3.33367ZM102.305 23.3945H98.1899V8.27742H102.305V23.3945Z" fill="#0E2A47"/>
<path d="M109.173 13.6766L114.926 8.30031H119.974L112.548 15.3941L120 23.3762H114.926L109.129 17.2737V23.3942H104.998V0.933594H109.129V13.6766H109.173Z" fill="#0E2A47"/>
<path d="M24.3262 12.5852C24.3001 12.405 24.2715 12.2273 24.2376 12.0522C23.875 10.1858 22.9528 8.47045 21.5908 7.12916C20.2289 5.78788 18.4903 4.88273 16.6011 4.5314C14.7118 4.18007 12.7593 4.39881 10.9975 5.15919C9.23573 5.91957 7.74609 7.18641 6.7223 8.79498C6.34667 9.38155 6.0383 10.0077 5.80291 10.6618C5.64118 11.1134 5.51407 11.5765 5.42266 12.047C5.38619 12.2299 5.35754 12.4152 5.3315 12.6006C5.27782 13.0148 5.25085 13.4319 5.25076 13.8495V14.4957C5.25076 14.5653 5.25076 14.6322 5.25076 14.7017C5.26152 15.2434 5.31639 15.7833 5.41484 16.3162C5.49457 16.7662 5.60597 17.2101 5.74822 17.6448C5.92533 17.7736 6.10504 17.9023 6.28996 18.0156L6.34726 18.0542C6.97504 18.4648 7.63324 18.8281 8.31626 19.1408L8.57671 19.2541C10.5483 20.1167 12.6804 20.5625 14.8364 20.5629C16.9924 20.5634 19.1247 20.1184 21.0966 19.2567L21.357 19.1434C22.035 18.8265 22.6879 18.4599 23.3104 18.0465L23.3729 18.0053C23.5526 17.8869 23.7323 17.7633 23.9068 17.6371C24.0508 17.199 24.1639 16.7517 24.2454 16.2982C24.3403 15.7683 24.3943 15.232 24.4069 14.694C24.4069 14.6271 24.4069 14.5627 24.4069 14.4957V13.8495C24.4082 13.4267 24.3812 13.0044 24.3262 12.5852ZM10.6004 7.46377L10.728 7.3788L10.7645 7.35562L10.7984 7.33245H10.814L10.8478 7.31185C10.9103 7.2758 10.9729 7.23975 11.038 7.20628L11.1734 7.13933L11.275 7.09556L11.3375 7.06981L11.3974 7.04664C11.4625 7.02089 11.5276 7.00029 11.5927 6.97969L11.6631 6.96167L11.7516 6.93592L11.8349 6.9179C11.9105 6.89987 11.9886 6.887 12.0641 6.8767H12.1214H12.2022H12.2803H12.3402C12.665 6.84909 12.9917 6.90007 13.2921 7.02523C13.5925 7.15039 13.8576 7.34598 14.0644 7.59509C14.7702 8.54521 14.3587 10.0309 13.145 10.9089C11.9313 11.787 10.3764 11.7303 9.67061 10.7802C8.96478 9.83008 9.38932 8.34438 10.6004 7.46377ZM22.6306 14.4597C22.6303 15.0879 22.5587 15.7141 22.4171 16.3265L22.3519 16.3703C22.0472 16.5711 21.7373 16.7591 21.4195 16.9367C20.6056 17.3888 19.7457 17.7547 18.8541 18.0285C16.2326 18.8352 13.425 18.8352 10.8036 18.0285C9.91293 17.7555 9.05389 17.3904 8.24073 16.9393C7.92559 16.7642 7.61565 16.5762 7.31613 16.378L7.24321 16.3291C7.10229 15.7157 7.03152 15.0887 7.03224 14.4597V14.3052L7.29269 14.1945C8.15478 13.8289 9.40234 13.2933 9.91543 13.0461C10.7385 12.6547 11.1057 12.7551 11.7177 13.3036C12.2423 13.7908 12.8087 14.2319 13.4107 14.6219C13.6313 14.7607 13.8928 14.8222 14.153 14.7966C14.4132 14.7709 14.6572 14.6595 14.8458 14.4803C15.2703 14.0348 17.9191 11.3158 18.2629 10.8446C18.6067 10.3734 19.3489 10.5047 19.8021 10.8446L22.3103 12.7423L22.5577 12.9276C22.5707 13.0358 22.5837 13.1465 22.5942 13.2547C22.6046 13.3628 22.6124 13.5121 22.6202 13.6203C22.628 13.7284 22.6202 13.8289 22.6202 13.9344L22.6306 14.4597Z" fill="#1273EB"/>
<path d="M29.371 10.723C29.0611 9.34031 28.2068 8.16359 26.7978 7.73616C26.6719 7.69777 26.5441 7.66596 26.4149 7.64089C25.7006 6.25958 24.7285 5.02426 23.5499 4.00002C22.0654 2.68853 20.2977 1.72924 18.3814 1.19521C16.4652 0.661174 14.4509 0.56648 12.492 0.918336C10.5332 1.27019 8.68137 2.05932 7.07761 3.22562C5.47385 4.39193 4.16044 5.90466 3.2374 7.64862C2.51913 7.79449 1.85992 8.14547 1.34142 8.65807C0.82292 9.17067 0.467908 9.82238 0.320354 10.5325C0.107856 11.5273 0.000494898 12.5412 0 13.558L0 14.5544C0 15.6513 0.171897 16.7997 0.903764 17.6726C1.23628 18.0816 1.6596 18.4093 2.1409 18.6304C2.19299 18.6536 2.38312 18.6871 2.40135 18.7463C2.63649 19.4774 2.93269 20.188 3.28689 20.8706C2.87154 21.3777 2.49129 21.9119 2.14872 22.4696C2.51929 23.0892 2.93265 23.6828 3.38586 24.2462C4.73789 25.9772 6.47334 27.3787 8.45884 28.3429C10.4443 29.3072 12.627 29.8086 14.8392 29.8086C17.0513 29.8086 19.234 29.3072 21.2195 28.3429C23.205 27.3787 24.9405 25.9772 26.2925 24.2462C26.743 23.6826 27.1537 23.089 27.5218 22.4696C27.1775 21.9124 26.7964 21.3783 26.381 20.8706C26.7346 20.1886 27.0308 19.4789 27.2666 18.7489C27.2822 18.7 27.652 18.5764 27.7146 18.5403C28.1618 18.2953 28.5536 17.9623 28.8657 17.5619C29.7669 16.4032 29.6705 14.9329 29.6705 13.558C29.6723 12.6052 29.5719 11.6549 29.371 10.723ZM27.9125 14.5313C27.9125 14.8686 27.9125 15.2033 27.876 15.5329C27.8561 15.7933 27.7791 16.0462 27.6505 16.2743C27.5219 16.5024 27.3447 16.7001 27.1311 16.8538C26.7625 17.1283 26.308 17.266 25.8471 17.2426C25.8471 17.2426 25.7273 17.7138 25.7169 17.7576C25.5194 18.4601 25.2579 19.1436 24.9355 19.7994C24.7715 20.1239 24.5943 20.4406 24.4146 20.7496L24.2219 21.0251C24.2219 21.0457 24.063 21.2285 24.0787 21.2491C24.5063 21.6844 24.9023 22.149 25.2637 22.6395C24.0835 24.2919 22.5193 25.6401 20.7026 26.5706C18.8858 27.5011 16.8696 27.9868 14.8235 27.9868C12.7775 27.9868 10.7613 27.5011 8.94452 26.5706C7.12776 25.6401 5.56354 24.2919 4.38338 22.6395C4.73271 22.1739 5.11294 21.7318 5.52155 21.316C5.53898 21.301 5.55164 21.2814 5.55802 21.2594C5.55883 21.2282 5.54766 21.1978 5.52676 21.1744C4.72598 19.9902 4.14724 18.6732 3.81821 17.2864V17.2452C3.35822 17.2677 2.90479 17.1301 2.53679 16.8564C2.20402 16.617 1.96194 16.2743 1.8492 15.8831C1.75413 15.439 1.71997 14.9843 1.74762 14.5313C1.71828 13.3823 1.80553 12.2333 2.00807 11.1015C2.06971 10.813 2.16862 10.5334 2.30238 10.2698C2.3695 10.151 2.45275 10.0419 2.54981 9.9454C2.64395 9.84832 2.74878 9.76195 2.86235 9.68792C3.10135 9.5219 3.37586 9.41264 3.66454 9.36863C3.90451 9.33209 4.14931 9.34083 4.38599 9.39438C5.19273 7.50412 6.50879 5.86903 8.19075 4.66728C9.87271 3.46554 11.8561 2.74324 13.9246 2.57911C15.9932 2.41497 18.0677 2.81529 19.922 3.73645C21.7763 4.6576 23.3393 6.06425 24.4407 7.80311C24.7563 8.30632 25.0314 8.8332 25.2637 9.37893C25.6827 9.28307 26.1221 9.32889 26.5117 9.50908C26.9012 9.68926 27.2184 9.9934 27.4124 10.3728C27.6169 10.8483 27.7409 11.3537 27.7797 11.8688C27.8877 12.7521 27.9321 13.6418 27.9125 14.5313Z" fill="#1273EB"/>
</g>
<defs>
<clipPath id="clip0_3517_44217">
<rect width="120" height="29.0909" fill="white" transform="translate(0 0.709961)"/>
</clipPath>
</defs>
</svg>
